<svg xmlns="http://www.w3.org/2000/svg" viewBox="2 -2 36 26" fill="#6b21a8">
  <circle cx="12" cy="4" r="3.5"/>
  <path d="M12 7.5c-1.8 0-3 1-3 2.5v4h6v-4c0-1.5-1.2-2.5-3-2.5z"/>
  <path d="M5 11.5l4.5-2.5" stroke="#6b21a8" stroke-width="2" stroke-linecap="round" fill="none"/>
  <path d="M19 11.5l-4.5-2.5" stroke="#6b21a8" stroke-width="2" stroke-linecap="round" fill="none"/>
  <rect x="10" y="14" width="1.8" height="6" rx="0.9"/>
  <rect x="12.5" y="14" width="1.8" height="6" rx="0.9"/>
  <circle cx="28" cy="4" r="3.5"/>
  <circle cx="32" cy="3" r="1.8"/>
  <path d="M31 2.5c1.2-0.5 2.2 0 2.5 1" stroke="#6b21a8" stroke-width="1.2" fill="none"/>
  <path d="M28 7.5c-1.8 0-3 1-3 2.5v4h6v-4c0-1.5-1.2-2.5-3-2.5z"/>
  <path d="M21 11.5l4.5-2.5" stroke="#6b21a8" stroke-width="2" stroke-linecap="round" fill="none"/>
  <path d="M35 11.5l-4.5-2.5" stroke="#6b21a8" stroke-width="2" stroke-linecap="round" fill="none"/>
  <rect x="26" y="14" width="1.8" height="6" rx="0.9"/>
  <rect x="28.5" y="14" width="1.8" height="6" rx="0.9"/>
  <polygon points="20,1 21,3.5 23.5,3.8 21.5,5.5 22,8 20,6.8 18,8 18.5,5.5 16.5,3.8 19,3.5"/>
  <path d="M7 22c4-1.5 8-2 13-1.5s9 1 13-0.5" stroke="#6b21a8" stroke-width="1.5" stroke-linecap="round" fill="none"/>
</svg>
